<?xml version="1.0" encoding="UTF-8" standalone="no"?>
<!-- Created with Inkscape (http://www.inkscape.org/) -->

<svg
   xmlns:dc="http://purl.org/dc/elements/1.1/"
   xmlns:cc="http://creativecommons.org/ns#"
   xmlns:rdf="http://www.w3.org/1999/02/22-rdf-syntax-ns#"
   xmlns:svg="http://www.w3.org/2000/svg"
   xmlns="http://www.w3.org/2000/svg"
   xmlns:sodipodi="http://sodipodi.sourceforge.net/DTD/sodipodi-0.dtd"
   xmlns:inkscape="http://www.inkscape.org/namespaces/inkscape"
   version="1.1"
   id="svg4518"
   width="24"
   height="24"
   viewBox="0 0 24 24"
   sodipodi:docname="BGG.svg"
   inkscape:version="0.92.3 (2405546, 2018-03-11)">
  <metadata
     id="metadata4524">
    <rdf:RDF>
      <cc:Work
         rdf:about="">
        <dc:format>image/svg+xml</dc:format>
        <dc:type
           rdf:resource="http://purl.org/dc/dcmitype/StillImage" />
        <dc:title></dc:title>
      </cc:Work>
    </rdf:RDF>
  </metadata>
  <defs
     id="defs4522" />
  <sodipodi:namedview
     pagecolor="#ffffff"
     bordercolor="#666666"
     borderopacity="1"
     objecttolerance="10"
     gridtolerance="10"
     guidetolerance="10"
     inkscape:pageopacity="0"
     inkscape:pageshadow="2"
     inkscape:window-width="1920"
     inkscape:window-height="1013"
     id="namedview4520"
     showgrid="false"
     showguides="false"
     inkscape:zoom="3.6444444"
     inkscape:cx="64.070122"
     inkscape:cy="67.79095"
     inkscape:window-x="-9"
     inkscape:window-y="-9"
     inkscape:window-maximized="1"
     inkscape:current-layer="svg4518"
     inkscape:pagecheckerboard="false"
     fit-margin-top="0"
     fit-margin-left="0"
     fit-margin-right="0"
     fit-margin-bottom="0" />
  <path
     style="fill:#000000;stroke-width:0.10666122"
     d="M 0,11.999633 V 0 H 12 24 V 11.997008 23.994 L 12,23.997 0,24 Z M 23.83437,23.66848 c -0.03435,-0.05565 -0.10791,-0.0729 -0.163481,-0.03855 -0.05557,0.03435 -0.07293,0.107847 -0.03859,0.163465 0.03435,0.0555 0.10791,0.0729 0.163481,0.03855 0.05558,-0.03435 0.07293,-0.107847 0.0386,-0.16345 z M 12.019816,19.352602 c 1.690434,-0.618926 3.129651,-1.182863 3.19826,-1.253211 0.17919,-0.183715 2.168116,-4.888066 2.168374,-5.128793 1.07e-4,-0.110697 -0.184113,-0.401328 -0.409405,-0.645715 L 16.567423,11.880536 16.865856,9.5399028 C 17.302119,6.1182676 17.318103,6.2190195 16.378293,6.465972 16.087689,6.54232 15.834227,6.5891182 15.815045,6.5699188 15.795855,6.5507198 16.001772,6.0605494 16.272621,5.4806222 17.083076,3.7453103 17.185451,3.4491444 17.021785,3.3133235 16.91467,3.2243765 15.589196,3.6711676 11.560172,5.1540672 l -5.3201719,1.95813 -0.02856,0.3634839 c -0.015708,0.1999288 0.089339,1.2754109 0.2334348,2.3899668 l 0.2619944,2.0264531 -0.4880187,0.49842 c -0.3302264,0.337264 -0.4705227,0.561417 -0.4339067,0.693263 0.029762,0.107247 0.6889745,1.778691 1.4649171,3.714487 1.1920339,2.973853 1.5066298,3.663982 1.6766224,3.677992 0.010905,8.55e-4 1.4028996,-0.50475 3.0933326,-1.123676 z M 8.761115,20.07795 C 8.5396215,19.663393 5.9733334,13.164107 5.9733334,13.017726 c 0,-0.0867 0.2006363,-0.362044 0.4458585,-0.611876 L 6.8650503,11.951589 6.5821567,9.6829235 C 6.3596112,7.8982331 6.3270741,7.3874688 6.4296316,7.2886668 6.6511822,7.0752233 16.772185,3.395836 16.869661,3.493303 c 0.05086,0.050848 -0.216631,0.7651716 -0.602425,1.6087457 -0.381646,0.8344995 -0.693903,1.5670021 -0.693903,1.6277802 0,0.060748 0.084,0.086097 0.186668,0.056398 0.749652,-0.2175384 1.132783,-0.2834013 1.208459,-0.2077287 0.04839,0.048449 -0.06003,1.2795059 -0.240955,2.7357962 l -0.328944,2.6478236 0.440719,0.449012 c 0.242396,0.246952 0.44072,0.482895 0.44072,0.524294 0,0.152215 -2.060588,4.933333 -2.175003,5.046595 -0.12396,0.122697 -5.9205861,2.28263 -6.1259359,2.28263 -0.065022,0 -0.1630976,-0.084 -0.2179461,-0.186654 z m 3.288997,-1.126765 2.930112,-1.087677 1.041934,-2.44968 1.041935,-2.449695 -0.445673,-0.454066 -0.445673,-0.454066 0.320572,-2.5883509 c 0.176314,-1.4235914 0.30568,-2.6193848 0.287479,-2.6573187 -0.0182,-0.037949 -0.32086,0.0075 -0.672576,0.1022969 -0.981233,0.262882 -0.989578,0.1862343 -0.172835,-1.5876264 0.385922,-0.8381593 0.681739,-1.5438727 0.657373,-1.568247 -0.05566,-0.055648 -9.8771403,3.561896 -9.9842627,3.6775124 -0.043261,0.046649 0.033815,0.948811 0.1712789,2.0047036 0.3439098,2.6416441 0.3483027,2.5685961 -0.1872561,3.1142351 l -0.44748,0.455896 1.2662904,3.174427 c 1.6239038,4.070921 1.5385455,3.868727 1.6301012,3.861482 0.043212,-0.003 1.3971183,-0.495675 3.0086803,-1.093886 z"
     id="path4532"
     inkscape:connector-curvature="0" />
</svg>
